<svg width="500" height="500" viewBox="0 0 500 500" fill="none" xmlns="http://www.w3.org/2000/svg">
<path d="M466.889 316.203H303.026V221.358H466.889V316.203ZM304.026 315.203H465.889V222.358H304.026V315.203Z" fill="#E0E0E0"/>
<path d="M433.09 271.928H324.955V275.1H433.09V271.928Z" fill="#F0F0F0"/>
<path d="M440.537 283.75H324.955V287.211H440.537V283.75Z" fill="#F0F0F0"/>
<path d="M440.537 295.71H324.955V299.171H440.537V295.71Z" fill="#F0F0F0"/>
<path d="M362.747 254.759H324.955V262.988H362.747V254.759Z" fill="#F0F0F0"/>
<path d="M466.389 221.857H303.526V236.956H466.389V221.857Z" fill="#E0E0E0"/>
<path d="M453.857 234.7C453.649 234.501 455.748 231.97 458.543 229.047C461.34 226.123 463.775 223.915 463.983 224.114C464.191 224.313 462.092 226.844 459.295 229.767C456.5 232.69 454.065 234.899 453.857 234.7Z" fill="white"/>
<path d="M463.984 234.7C463.776 234.899 461.342 232.69 458.546 229.767C455.748 226.843 453.649 224.312 453.857 224.114C454.065 223.916 456.499 226.123 459.296 229.047C462.093 231.97 464.192 234.501 463.984 234.7Z" fill="white"/>
<path d="M265.227 34.054H102.363V127.899H265.227V34.054Z" fill="#E6E6E6"/>
<path d="M231.926 84.125H123.792V87.297H231.926V84.125Z" fill="#F0F0F0"/>
<path d="M239.374 95.947H123.792V99.407H239.374V95.947Z" fill="#F0F0F0"/>
<path d="M239.374 107.906H123.792V111.366H239.374V107.906Z" fill="#F0F0F0"/>
<path d="M161.583 66.9561H123.792V75.1851H161.583V66.9561Z" fill="#F0F0F0"/>
<path d="M265.227 34.054H102.363V49.152H265.227V34.054Z" fill="#E0E0E0"/>
<path d="M252.136 46.8249C251.928 46.6259 254.027 44.0949 256.822 41.1719C259.619 38.2479 262.054 36.0399 262.262 36.2379C262.47 36.4369 260.371 38.9669 257.574 41.8909C254.78 44.8139 252.344 47.0229 252.136 46.8249Z" fill="white"/>
<path d="M262.263 46.825C262.055 47.024 259.62 44.815 256.824 41.892C254.026 38.968 251.929 36.437 252.136 36.239C252.344 36.04 254.779 38.249 257.575 41.173C260.373 44.095 262.471 46.626 262.263 46.825Z" fill="white"/>
<path d="M203.544 208.39H39.6812V113.545H203.544V208.39ZM40.6812 207.39H202.544V114.545H40.6812V207.39Z" fill="#E0E0E0"/>
<path d="M169.743 164.115H61.6084V167.287H169.743V164.115Z" fill="#F0F0F0"/>
<path d="M177.191 175.938H61.6084V179.398H177.191V175.938Z" fill="#F0F0F0"/>
<path d="M177.191 187.897H61.6084V191.357H177.191V187.897Z" fill="#F0F0F0"/>
<path d="M99.4004 146.946H61.6084V155.176H99.4004V146.946Z" fill="#F0F0F0"/>
<path d="M203.044 114.045H40.1812V129.144H203.044V114.045Z" fill="#E0E0E0"/>
<path d="M392.656 230.124H200.352V402.28H392.656V230.124Z" fill="#E6E6E6"/>
<path d="M210.019 175.892H59.3813V332.401H210.019V175.892Z" fill="#F0F0F0"/>
<path d="M210.019 175.892H59.3813V192.945H210.019V175.892Z" fill="#E0E0E0"/>
<path d="M71.8211 184.244C71.8211 186.07 70.4051 187.55 68.6581 187.55C66.9111 187.55 65.4951 186.07 65.4951 184.244C65.4951 182.418 66.9111 180.938 68.6581 180.938C70.4051 180.938 71.8211 182.418 71.8211 184.244Z" fill="white"/>
<path d="M84.6492 184.244C84.6492 186.07 83.2332 187.55 81.4862 187.55C79.7392 187.55 78.3232 186.07 78.3232 184.244C78.3232 182.418 79.7392 180.938 81.4862 180.938C83.2332 180.938 84.6492 182.418 84.6492 184.244Z" fill="white"/>
<path d="M97.4783 184.244C97.4783 186.07 96.0623 187.55 94.3153 187.55C92.5683 187.55 91.1523 186.07 91.1523 184.244C91.1523 182.418 92.5683 180.938 94.3153 180.938C96.0623 180.938 97.4783 182.418 97.4783 184.244Z" fill="white"/>
<path d="M445.385 68.2849H253.081V259.946H445.385V68.2849Z" fill="#F0F0F0"/>
<path d="M445.385 68.2849H253.081V90.7349H445.385V68.2849Z" fill="#E0E0E0"/>
<path d="M269.458 79.279C269.458 81.683 267.594 83.632 265.294 83.632C262.995 83.632 261.131 81.683 261.131 79.279C261.131 76.875 262.995 74.927 265.294 74.927C267.593 74.927 269.458 76.876 269.458 79.279Z" fill="white"/>
<path d="M285.128 76.3358C286.827 78.0358 286.887 80.7318 285.261 82.3568C283.635 83.9828 280.939 83.9228 279.24 82.2238C277.541 80.5238 277.48 77.8278 279.106 76.2018C280.731 74.5758 283.427 74.6358 285.128 76.3358Z" fill="white"/>
<path d="M303.236 79.279C303.236 81.683 301.372 83.632 299.072 83.632C296.772 83.632 294.909 81.683 294.909 79.279C294.909 76.875 296.772 74.927 299.072 74.927C301.372 74.927 303.236 76.876 303.236 79.279Z" fill="white"/>
<path d="M403.842 453.131C403.842 453.274 334.403 453.392 248.765 453.392C163.098 453.392 93.6729 453.275 93.6729 453.131C93.6729 452.987 163.097 452.87 248.765 452.87C334.403 452.871 403.842 452.988 403.842 453.131Z" fill="#263238"/>
<path d="M336.179 330.712C320.731 319.919 317.226 299.886 317.837 281.878C317.939 278.872 317.608 275.703 319.038 273.065C320.469 270.428 323.805 268.626 326.496 269.892C328.728 270.943 329.701 273.539 330.95 275.687C332.611 278.544 335.087 280.909 338 282.42C339.914 283.413 342.282 284.021 344.172 282.979C346.765 281.548 347.07 277.966 347.052 274.976C347.017 269.404 346.983 263.831 346.948 258.26C346.929 255.271 346.921 252.218 347.85 249.381C348.78 246.544 350.834 243.908 353.678 243.111C356.523 242.315 360.039 243.954 360.64 246.881C360.89 248.099 360.642 249.363 360.725 250.604C360.808 251.845 361.386 253.218 362.565 253.564C363.758 253.915 364.955 253.067 365.848 252.192C368.934 249.174 371.028 245.285 372.985 241.418C374.942 237.551 376.841 233.592 379.641 230.299C382.441 227.006 386.314 224.398 390.595 224.155C394.877 223.913 399.439 226.555 400.521 230.759C401.606 234.974 399.147 239.25 396.471 242.662C392.501 247.724 387.805 252.201 382.576 255.907C381.634 256.576 380.612 257.299 380.252 258.406C379.603 260.399 381.491 262.379 383.459 263.034C385.687 263.776 388.105 263.545 390.436 263.819C392.767 264.093 395.293 265.122 396.174 267.325C397.399 270.381 394.843 273.584 392.328 275.681C387.293 279.882 381.543 283.201 375.409 285.448C373.21 286.253 370.895 286.959 369.122 288.504C367.349 290.05 366.278 292.736 367.35 294.842C368.422 296.95 371.172 297.624 373.476 297.196C375.779 296.769 377.841 295.518 380.037 294.69C384.145 293.139 389.451 293.422 392.083 296.973C393.812 299.307 393.965 302.557 393.09 305.339C392.216 308.121 390.442 310.518 388.558 312.728C381.973 320.454 373.543 326.673 364.012 329.978C354.482 333.282 345.651 334.176 336.179 330.712Z" fill="#F36B16"/>
<path d="M396.202 226.658C396.209 226.665 396.11 226.762 395.912 226.942C395.691 227.139 395.397 227.401 395.024 227.734C394.241 228.426 393.086 229.447 391.635 230.802C388.73 233.503 384.649 237.567 380.216 243.127C377.991 245.898 375.68 249.035 373.259 252.448C370.844 255.867 368.286 259.536 365.742 263.494C363.198 267.45 360.651 271.69 358.366 276.271C357.214 278.556 356.186 280.948 355.137 283.386C354.094 285.824 353.036 288.297 351.965 290.8C347.717 300.825 343.981 310.517 341.311 319.57C338.626 328.615 337.028 336.998 336.329 344.101C335.612 351.207 335.759 357.007 336.049 360.987C336.205 362.977 336.358 364.522 336.498 365.564C336.556 366.064 336.601 366.457 336.636 366.753C336.664 367.021 336.674 367.16 336.665 367.162C336.655 367.163 336.627 367.028 336.58 366.762C336.533 366.469 336.469 366.077 336.388 365.58C336.212 364.541 336.025 362.998 335.835 361.005C335.48 357.022 335.272 351.201 335.942 344.064C336.594 336.93 338.159 328.505 340.827 319.424C343.477 310.336 347.209 300.615 351.461 290.582C352.533 288.078 353.593 285.603 354.637 283.165C355.685 280.733 356.724 278.321 357.886 276.025C360.191 271.421 362.757 267.171 365.32 263.214C367.881 259.253 370.457 255.588 372.889 252.179C375.33 248.773 377.665 245.642 379.915 242.879C384.399 237.333 388.538 233.297 391.492 230.643C392.967 229.31 394.144 228.314 394.952 227.649C395.341 227.334 395.645 227.086 395.875 226.899C396.085 226.732 396.196 226.65 396.202 226.658Z" fill="#263238"/>
<path d="M358.043 276.003C358.006 276.009 357.904 275.555 357.751 274.728C357.594 273.902 357.406 272.7 357.196 271.21C356.773 268.233 356.33 264.103 355.858 259.547C355.386 254.988 354.885 250.876 354.419 247.914C354.19 246.433 353.992 245.235 353.845 244.409C353.702 243.582 353.641 243.12 353.678 243.111C353.715 243.103 353.847 243.549 354.054 244.364C354.266 245.178 354.523 246.368 354.801 247.846C355.368 250.802 355.933 254.924 356.404 259.487C356.858 263.984 357.268 268.052 357.582 271.161C357.732 272.564 357.86 273.747 357.963 274.696C358.05 275.532 358.082 275.998 358.043 276.003Z" fill="#263238"/>
<path d="M396.481 268.82C396.482 268.858 395.935 268.922 394.948 269.004C393.962 269.092 392.534 269.211 390.775 269.415C387.254 269.795 382.41 270.49 377.098 271.491C371.787 272.502 367.019 273.621 363.594 274.53C361.877 274.972 360.498 275.368 359.543 275.636C358.589 275.907 358.056 276.04 358.043 276.004C358.031 275.967 358.543 275.765 359.479 275.429C360.417 275.098 361.783 274.644 363.491 274.151C366.899 273.142 371.67 271.959 376.997 270.944C382.324 269.941 387.196 269.304 390.737 269.024C392.507 268.87 393.943 268.809 394.936 268.789C395.93 268.772 396.479 268.781 396.481 268.82Z" fill="#263238"/>
<path d="M341.3 318.716C341.282 318.724 341.193 318.563 341.036 318.247C340.858 317.871 340.641 317.412 340.379 316.856C339.814 315.646 339.041 313.874 338.115 311.671C336.261 307.268 333.89 301.105 331.367 294.269C328.842 287.43 326.532 281.253 324.772 276.818C323.91 274.662 323.2 272.888 322.672 271.57C322.446 270.998 322.261 270.526 322.108 270.138C321.985 269.809 321.928 269.632 321.946 269.623C321.964 269.616 322.053 269.777 322.21 270.093C322.388 270.469 322.605 270.927 322.867 271.483C323.432 272.693 324.205 274.465 325.131 276.668C326.986 281.071 329.356 287.234 331.88 294.073C334.404 300.91 336.714 307.086 338.474 311.522C339.337 313.677 340.046 315.452 340.574 316.769C340.8 317.341 340.985 317.814 341.138 318.201C341.261 318.532 341.318 318.708 341.3 318.716Z" fill="#263238"/>
<path d="M392.378 302.254C392.383 302.273 392.208 302.344 391.871 302.463C391.472 302.597 390.981 302.761 390.388 302.96C389.018 303.404 387.168 304.004 384.918 304.732C380.3 306.23 373.945 308.372 366.927 310.748C359.906 313.126 353.526 315.211 348.875 316.613C346.55 317.315 344.663 317.864 343.352 318.216C342.746 318.375 342.246 318.506 341.839 318.614C341.491 318.699 341.306 318.734 341.301 318.716C341.296 318.698 341.471 318.626 341.808 318.506C342.206 318.373 342.697 318.209 343.291 318.01C344.661 317.566 346.51 316.967 348.76 316.237C353.378 314.74 359.734 312.597 366.754 310.22C373.773 307.843 380.152 305.758 384.803 304.356C387.128 303.654 389.015 303.105 390.327 302.752C390.933 302.593 391.432 302.461 391.84 302.355C392.187 302.271 392.372 302.236 392.378 302.254Z" fill="#263238"/>
<path d="M371.541 59.6789L366.388 61.5219L364.185 54.7929C360.121 42.3809 347.151 35.7399 335.288 39.9839C323.418 44.2299 317.072 57.7809 321.136 70.1929L323.339 76.9219L318.169 78.7709C314.149 80.2089 311.973 84.8429 313.35 89.0499L327.686 132.841C329.084 137.112 333.523 139.389 337.543 137.951L390.917 118.858C395.002 117.397 397.18 112.752 395.781 108.482L381.445 64.6909C380.066 60.4839 375.625 58.2169 371.541 59.6789ZM330.86 66.7129C328.633 59.9109 332.109 52.4829 338.617 50.1549C345.119 47.8289 352.223 51.4719 354.45 58.2739L356.653 65.0039L333.063 73.4419L330.86 66.7129ZM360.869 105.566L364.53 116.749C364.684 117.222 364.414 117.705 363.957 117.869L358.835 119.701C358.443 119.841 357.941 119.634 357.787 119.161L354.126 107.978C350.159 107.81 346.477 105.181 345.099 100.974C343.329 95.5649 346.098 89.6509 351.289 87.7939C356.477 85.9379 362.131 88.8379 363.902 94.2479C365.279 98.4549 363.91 102.892 360.869 105.566Z" fill="#F36B16"/>
<path d="M366.163 61.4009C366.212 61.5359 356.613 65.1299 344.725 69.4259C332.834 73.7239 323.158 77.0979 323.109 76.9629C323.06 76.8279 332.657 73.2349 344.549 68.9369C356.435 64.6409 366.114 61.2659 366.163 61.4009Z" fill="#263238"/>
<path d="M377.497 63.244C377.506 63.241 377.545 63.33 377.612 63.506C377.688 63.71 377.784 63.968 377.903 64.29C378.16 65.019 378.517 66.033 378.971 67.321C379.89 69.998 381.198 73.807 382.808 78.499C384.413 83.236 386.32 88.858 388.435 95.099C389.48 98.232 390.621 101.487 391.716 104.925C392.222 106.653 392.642 108.5 392.466 110.413C392.377 111.362 392.119 112.317 391.657 113.181C391.186 114.039 390.529 114.794 389.767 115.409C388.23 116.638 386.43 117.356 384.692 118C382.947 118.627 381.226 119.245 379.537 119.852C376.157 121.061 372.897 122.228 369.79 123.341C363.582 125.551 357.988 127.543 353.276 129.221C348.596 130.867 344.797 132.203 342.128 133.142C340.837 133.584 339.819 133.933 339.089 134.183C338.763 134.289 338.501 134.374 338.294 134.441C338.113 134.497 338.02 134.521 338.017 134.512C338.014 134.504 338.102 134.463 338.276 134.391C338.479 134.311 338.735 134.21 339.053 134.084C339.777 133.812 340.783 133.432 342.06 132.951C344.716 131.974 348.496 130.585 353.153 128.874C357.853 127.166 363.434 125.139 369.629 122.89C372.732 121.768 375.989 120.592 379.365 119.372C381.053 118.763 382.771 118.143 384.514 117.514C386.239 116.875 387.99 116.166 389.44 115.004C390.159 114.424 390.765 113.724 391.201 112.934C391.627 112.138 391.867 111.257 391.952 110.364C392.121 108.567 391.724 106.772 391.228 105.07C390.151 101.666 389.01 98.382 387.981 95.253C385.906 89 384.036 83.364 382.46 78.617C380.916 73.903 379.661 70.076 378.78 67.387C378.365 66.086 378.039 65.061 377.805 64.325C377.705 63.996 377.626 63.733 377.564 63.524C377.51 63.341 377.488 63.247 377.497 63.244Z" fill="#263238"/>
<path d="M349.342 49.454C349.316 49.498 348.811 49.185 347.828 48.789C346.843 48.413 345.352 47.974 343.463 47.914C341.586 47.845 339.302 48.135 337.022 49.131C334.75 50.115 332.512 51.862 330.91 54.239C329.276 56.607 328.561 59.347 328.56 61.832C328.539 64.328 329.069 66.551 329.578 68.375C330.105 70.201 330.644 71.65 330.999 72.656C331.358 73.662 331.552 74.221 331.517 74.235C331.485 74.247 331.228 73.714 330.81 72.73C330.397 71.744 329.804 70.312 329.226 68.481C328.666 66.652 328.086 64.401 328.08 61.829C328.053 59.271 328.785 56.397 330.478 53.946C332.14 51.482 334.469 49.685 336.832 48.69C339.203 47.685 341.558 47.427 343.481 47.545C345.417 47.654 346.93 48.161 347.908 48.602C348.392 48.839 348.762 49.033 348.995 49.196C349.233 49.351 349.352 49.438 349.342 49.454Z" fill="#263238"/>
<path d="M349.796 88.5839C349.79 88.5709 349.963 88.4849 350.303 88.3319C350.64 88.1749 351.156 87.9739 351.846 87.7769C352.531 87.5619 353.409 87.4059 354.445 87.3449C355.478 87.2939 356.695 87.4009 357.953 87.8679C360.508 88.7659 362.863 91.3779 364.019 94.8389C364.575 96.5869 364.624 98.6169 364.065 100.58C363.469 102.535 362.375 104.41 360.795 105.986L360.861 105.721C362.189 109.366 363.635 113.333 365.141 117.46L365.232 117.711L364.979 117.796C364.254 118.039 363.476 118.3 362.693 118.562C361.008 119.126 359.347 119.682 357.717 120.228L357.471 120.31L357.39 120.063C356.02 115.917 354.519 112.008 353.429 108.272L353.645 108.442C351.598 108.305 349.758 107.446 348.293 106.326C346.822 105.195 345.695 103.791 344.935 102.314C344.188 100.832 343.812 99.2589 343.875 97.8099C343.912 96.3619 344.246 95.0509 344.714 93.9459C345.647 91.7169 347.037 90.3149 348.067 89.5499C349.116 88.7829 349.796 88.5839 349.796 88.5839C349.82 88.6289 349.161 88.8799 348.16 89.6709C347.179 90.4609 345.853 91.8649 344.981 94.0549C344.11 96.1919 343.732 99.2639 345.29 102.131C346.037 103.548 347.138 104.895 348.561 105.974C349.978 107.042 351.746 107.847 353.67 107.965L353.839 107.975L353.886 108.135C354.989 111.845 356.498 115.738 357.88 119.901L357.552 119.737C359.181 119.191 360.842 118.633 362.527 118.068C363.31 117.806 364.087 117.545 364.813 117.302L364.651 117.637C363.156 113.506 361.718 109.535 360.399 105.888L360.345 105.741L360.464 105.623C361.96 104.144 363.05 102.31 363.624 100.45C364.17 98.5729 364.138 96.6439 363.62 94.9599C362.527 91.6009 360.28 89.0469 357.843 88.1499C356.64 87.6799 355.462 87.5519 354.45 87.5789C353.436 87.6149 352.569 87.7439 351.885 87.9319C350.513 88.2859 349.814 88.6279 349.796 88.5839Z" fill="#263238"/>
<path d="M318.891 377.318L219.01 376.856C206.997 376.801 197.302 367.02 197.353 355.007L198.412 104.603C198.463 92.583 208.25 82.882 220.269 82.938L320.15 83.399C332.163 83.455 341.857 93.236 341.806 105.248L340.747 355.652C340.698 367.672 330.911 377.374 318.891 377.318Z" fill="#455A64"/>
<path d="M320.008 92.041L300.643 91.952C298.046 91.94 295.931 94.132 295.92 96.846L295.904 100.359C295.893 103.074 293.778 105.265 291.181 105.253L253.434 105.079C250.837 105.067 248.741 102.856 248.752 100.141L248.767 96.628C248.778 93.913 246.682 91.702 244.085 91.69L237.274 91.658L220.325 91.58C211.908 91.541 205.053 98.335 205.017 106.753L203.984 351.165C203.948 359.579 210.738 366.429 219.151 366.468L318.833 366.928C327.25 366.967 334.104 360.173 334.141 351.755L335.174 107.342C335.21 98.93 328.421 92.081 320.008 92.041Z" fill="white"/>
<path d="M306.593 334.325L232.469 333.983C231.702 333.979 231.083 333.144 231.088 332.117L231.17 312.725C231.174 311.698 231.8 310.869 232.567 310.872L306.691 311.215C307.459 311.219 308.078 312.054 308.073 313.081L307.991 332.472C307.987 333.499 307.361 334.329 306.593 334.325Z" fill="#F36B16"/>
<path d="M255.081 324.707C254.659 324.705 254.253 324.636 253.864 324.499C253.48 324.356 253.183 324.176 252.973 323.959L253.211 323.497C253.41 323.693 253.677 323.859 254.012 323.996C254.353 324.127 254.709 324.194 255.083 324.196C255.44 324.197 255.73 324.155 255.952 324.07C256.18 323.979 256.345 323.858 256.449 323.707C256.557 323.556 256.612 323.388 256.613 323.204C256.614 322.982 256.55 322.804 256.42 322.668C256.297 322.532 256.132 322.426 255.927 322.349C255.721 322.267 255.494 322.195 255.246 322.135C254.997 322.074 254.748 322.011 254.5 321.945C254.251 321.873 254.021 321.78 253.811 321.665C253.606 321.551 253.439 321.401 253.31 321.217C253.186 321.027 253.125 320.78 253.126 320.477C253.127 320.196 253.201 319.939 253.348 319.707C253.501 319.47 253.732 319.281 254.041 319.142C254.35 318.997 254.745 318.926 255.227 318.928C255.546 318.93 255.862 318.977 256.176 319.071C256.489 319.159 256.759 319.282 256.986 319.44L256.781 319.918C256.538 319.754 256.279 319.634 256.003 319.557C255.733 319.48 255.471 319.441 255.216 319.44C254.875 319.438 254.594 319.483 254.372 319.574C254.149 319.665 253.984 319.788 253.875 319.945C253.772 320.096 253.719 320.269 253.719 320.464C253.718 320.686 253.779 320.864 253.903 321C254.032 321.136 254.2 321.242 254.405 321.319C254.616 321.396 254.845 321.465 255.094 321.525C255.343 321.586 255.589 321.652 255.832 321.723C256.08 321.795 256.307 321.888 256.512 322.003C256.723 322.112 256.89 322.259 257.014 322.443C257.143 322.628 257.207 322.869 257.206 323.166C257.205 323.442 257.128 323.699 256.975 323.937C256.823 324.169 256.589 324.357 256.275 324.502C255.966 324.641 255.568 324.709 255.081 324.707ZM258.508 324.674L258.532 318.992L259.133 318.995L259.109 324.677L258.508 324.674ZM260.957 324.685L260.981 319.004L261.476 319.006L265.376 323.959L265.116 323.958L265.137 319.023L265.73 319.025L265.706 324.707L265.211 324.705L261.319 319.752L261.579 319.753L261.558 324.688L260.957 324.685ZM270.052 324.776C269.619 324.774 269.219 324.702 268.852 324.559C268.49 324.412 268.174 324.207 267.904 323.946C267.64 323.685 267.433 323.379 267.283 323.026C267.139 322.674 267.067 322.289 267.069 321.873C267.071 321.456 267.145 321.072 267.293 320.721C267.446 320.37 267.658 320.065 267.93 319.807C268.202 319.548 268.519 319.349 268.882 319.21C269.251 319.066 269.652 318.995 270.084 318.997C270.517 318.999 270.912 319.068 271.269 319.205C271.631 319.342 271.938 319.549 272.191 319.826L271.816 320.206C271.579 319.967 271.318 319.795 271.031 319.691C270.745 319.587 270.437 319.534 270.107 319.533C269.755 319.531 269.43 319.589 269.132 319.707C268.839 319.819 268.581 319.983 268.359 320.198C268.141 320.408 267.97 320.656 267.844 320.943C267.724 321.223 267.663 321.534 267.662 321.875C267.66 322.211 267.718 322.522 267.836 322.81C267.959 323.097 268.129 323.349 268.344 323.567C268.565 323.779 268.822 323.945 269.113 324.065C269.411 324.18 269.732 324.239 270.079 324.24C270.403 324.242 270.709 324.195 270.996 324.098C271.289 324.002 271.558 323.839 271.802 323.607L272.141 324.063C271.87 324.3 271.552 324.48 271.189 324.603C270.826 324.72 270.447 324.778 270.052 324.776ZM271.565 323.987L271.574 321.893L272.15 321.896L272.141 324.063L271.565 323.987ZM278.251 324.814C277.526 324.81 276.956 324.599 276.541 324.181C276.126 323.762 275.921 323.144 275.924 322.327L275.938 319.072L276.538 319.075L276.525 322.306C276.522 322.977 276.671 323.472 276.973 323.793C277.275 324.114 277.702 324.275 278.254 324.278C278.811 324.28 279.242 324.123 279.546 323.805C279.851 323.487 280.004 322.993 280.007 322.322L280.021 319.091L280.605 319.094L280.591 322.349C280.588 323.166 280.377 323.782 279.959 324.196C279.546 324.611 278.976 324.817 278.251 324.814ZM282.391 324.784L282.415 319.102L284.542 319.112C285.023 319.114 285.437 319.195 285.783 319.353C286.128 319.506 286.392 319.729 286.575 320.022C286.763 320.31 286.857 320.659 286.855 321.071C286.853 321.471 286.757 321.817 286.566 322.108C286.381 322.394 286.115 322.615 285.768 322.77C285.421 322.926 285.007 323.002 284.525 323L282.731 322.992L283.001 322.709L282.992 324.787L282.391 324.784ZM283 322.758L282.734 322.464L284.511 322.472C285.079 322.475 285.51 322.355 285.803 322.113C286.102 321.865 286.252 321.517 286.254 321.068C286.256 320.613 286.109 320.261 285.812 320.011C285.521 319.76 285.091 319.634 284.523 319.631L282.746 319.623L283.015 319.34L283 322.758Z" fill="#E8E8E3"/>
<path d="M247.241 163.868L221.524 163.75L221.502 168.469L247.219 168.587L247.241 163.868Z" fill="#F36B16"/>
<path opacity="0.1" d="M247.241 163.868L221.524 163.75L221.502 168.469L247.219 168.587L247.241 163.868Z" fill="black"/>
<path d="M322.655 192.826C322.651 192.806 322.87 192.838 323.242 192.688C323.593 192.552 324.147 192.125 324.211 191.342C324.208 189.747 324.203 187.429 324.197 184.453C324.197 182.954 324.196 181.291 324.195 179.471C324.196 179.015 324.196 178.551 324.196 178.076C324.209 177.59 324.208 177.139 323.916 176.766C323.653 176.395 323.203 176.158 322.733 176.156C322.22 176.155 321.698 176.154 321.167 176.153C316.912 176.145 312.071 176.135 306.723 176.125C285.3 176.045 255.736 175.936 223.082 175.815C222.651 175.812 222.23 176.023 221.98 176.372C221.702 176.726 221.714 177.143 221.72 177.679C221.716 178.694 221.711 179.705 221.707 180.714C221.698 182.731 221.689 184.734 221.681 186.722C221.677 187.717 221.672 188.707 221.667 189.694C221.683 190.167 221.621 190.733 221.709 191.1C221.808 191.501 222.112 191.841 222.49 192.001C222.687 192.081 222.871 192.109 223.109 192.107L223.841 192.111L225.3 192.118C226.271 192.123 227.238 192.128 228.201 192.133C235.902 192.174 243.331 192.214 250.409 192.251C264.558 192.337 277.302 192.415 288.011 192.48C298.7 192.564 307.357 192.633 313.361 192.68C316.339 192.715 318.658 192.742 320.253 192.761C321.027 192.776 321.622 192.787 322.045 192.795C322.448 192.807 322.655 192.826 322.655 192.826C322.655 192.826 322.448 192.843 322.044 192.849C321.621 192.853 321.026 192.859 320.252 192.867C318.656 192.871 316.337 192.877 313.359 192.884C307.354 192.876 298.698 192.864 288.008 192.85C277.299 192.816 264.555 192.776 250.405 192.732C243.328 192.704 235.899 192.675 228.198 192.645C227.235 192.641 226.268 192.637 225.297 192.633L223.837 192.627L223.105 192.624C222.855 192.629 222.545 192.59 222.289 192.478C221.766 192.258 221.349 191.79 221.209 191.233C221.13 190.95 221.148 190.664 221.147 190.433L221.15 189.694C221.154 188.707 221.158 187.716 221.162 186.722C221.17 184.733 221.178 182.73 221.186 180.714C221.19 179.706 221.194 178.694 221.198 177.679C221.206 177.419 221.183 177.191 221.224 176.88C221.268 176.588 221.381 176.305 221.558 176.067C221.901 175.584 222.491 175.289 223.083 175.296C255.736 175.476 285.3 175.64 306.722 175.758C312.072 175.797 316.912 175.832 321.167 175.863C321.698 175.867 322.221 175.871 322.733 175.876C323.293 175.881 323.826 176.169 324.132 176.609C324.475 177.04 324.472 177.63 324.452 178.078C324.448 178.553 324.445 179.018 324.441 179.473C324.424 181.293 324.41 182.956 324.397 184.454C324.36 187.434 324.332 189.755 324.312 191.351C324.225 192.185 323.626 192.613 323.257 192.738C322.87 192.876 322.655 192.826 322.655 192.826Z" fill="#E0E0E0"/>
<path d="M275.47 182.116L228.427 181.9L228.406 186.311L275.449 186.527L275.47 182.116Z" fill="#F36B16"/>
<path opacity="0.2" d="M275.47 182.116L228.427 181.9L228.406 186.311L275.449 186.527L275.47 182.116Z" fill="white"/>
<path d="M247.06 206.932L221.343 206.813L221.321 211.532L247.038 211.651L247.06 206.932Z" fill="#F36B16"/>
<path opacity="0.1" d="M247.06 206.932L221.343 206.813L221.321 211.532L247.038 211.651L247.06 206.932Z" fill="black"/>
<path d="M321.995 235.887C321.993 235.869 322.205 235.888 322.588 235.775C322.951 235.656 323.536 235.356 323.855 234.642C324.026 234.29 324.043 233.863 324.028 233.374C324.026 232.888 324.024 232.358 324.022 231.785C324.02 230.634 324.017 229.309 324.014 227.821C324.014 226.328 324.013 224.67 324.013 222.857C324.013 222.403 324.013 221.94 324.013 221.467C324.035 220.989 323.977 220.546 323.721 220.147C323.481 219.755 323.09 219.444 322.634 219.305C322.187 219.163 321.652 219.24 321.123 219.219C316.883 219.211 312.059 219.201 306.727 219.191C285.379 219.112 255.917 219.002 223.377 218.882C222.473 218.86 221.638 219.597 221.551 220.491C221.521 221.442 221.535 222.493 221.525 223.485C221.516 225.494 221.507 227.491 221.499 229.472C221.495 230.463 221.49 231.451 221.486 232.434C221.503 232.925 221.433 233.438 221.549 233.83C221.662 234.244 221.926 234.613 222.279 234.855C222.646 235.102 223.043 235.193 223.523 235.175L224.978 235.182C225.946 235.187 226.909 235.192 227.869 235.197C235.544 235.237 242.947 235.277 249.999 235.314C264.1 235.4 276.799 235.478 287.471 235.543C298.123 235.627 306.749 235.695 312.733 235.742C315.701 235.777 318.011 235.804 319.601 235.823C320.372 235.838 320.965 235.849 321.387 235.857C321.789 235.868 321.995 235.887 321.995 235.887C321.995 235.887 321.789 235.904 321.386 235.91C320.965 235.914 320.371 235.92 319.6 235.928C318.011 235.932 315.7 235.938 312.732 235.946C306.749 235.938 298.122 235.926 287.469 235.912C276.797 235.879 264.098 235.839 249.997 235.795C242.944 235.767 235.541 235.738 227.867 235.708C226.907 235.704 225.944 235.7 224.976 235.696L223.521 235.69C223.032 235.716 222.431 235.598 221.989 235.282C221.536 234.972 221.198 234.499 221.052 233.967C220.903 233.407 220.992 232.92 220.97 232.432C220.974 231.449 220.977 230.461 220.981 229.47C220.989 227.488 220.998 225.492 221.005 223.482C221.017 222.464 220.997 221.498 221.034 220.429C221.145 219.278 222.219 218.331 223.379 218.36C255.919 218.54 285.38 218.703 306.728 218.821C312.059 218.86 316.882 218.895 321.123 218.927C321.646 218.955 322.175 218.87 322.716 219.036C323.239 219.199 323.68 219.557 323.95 220.005C324.237 220.444 324.299 221.005 324.27 221.467C324.266 221.94 324.263 222.403 324.259 222.858C324.243 224.671 324.228 226.329 324.215 227.822C324.199 229.311 324.186 230.635 324.174 231.786C324.167 232.359 324.161 232.889 324.156 233.374C324.165 233.851 324.136 234.324 323.949 234.685C323.597 235.428 322.979 235.72 322.601 235.826C322.205 235.925 321.995 235.887 321.995 235.887Z" fill="#E0E0E0"/>
<path d="M246.866 251.85L221.149 251.731L221.128 256.45L246.845 256.569L246.866 251.85Z" fill="#F36B16"/>
<path opacity="0.1" d="M246.866 251.85L221.149 251.731L221.128 256.45L246.845 256.569L246.866 251.85Z" fill="black"/>
<path d="M321.804 280.8C321.803 280.782 322.015 280.801 322.397 280.689C322.761 280.57 323.345 280.269 323.664 279.555C323.835 279.203 323.852 278.776 323.837 278.287C323.835 277.801 323.833 277.271 323.831 276.698C323.829 275.547 323.827 274.222 323.824 272.734C323.823 271.241 323.823 269.583 323.822 267.769C323.822 267.316 323.823 266.852 323.823 266.378C323.844 265.9 323.787 265.458 323.531 265.059C323.29 264.667 322.9 264.356 322.444 264.216C321.997 264.075 321.462 264.152 320.932 264.13C316.693 264.121 311.868 264.112 306.537 264.102C285.188 264.023 255.727 263.914 223.187 263.793C222.282 263.771 221.448 264.508 221.361 265.402C221.331 266.353 221.345 267.404 221.336 268.396C221.327 270.405 221.318 272.402 221.31 274.383C221.306 275.374 221.301 276.36 221.297 277.345C221.314 277.835 221.243 278.348 221.359 278.741C221.472 279.155 221.736 279.524 222.089 279.766C222.456 280.013 222.853 280.105 223.333 280.086L224.788 280.093C225.756 280.098 226.719 280.103 227.679 280.108C235.353 280.149 242.756 280.188 249.809 280.225C263.91 280.312 276.609 280.389 287.281 280.454C297.933 280.538 306.559 280.606 312.543 280.653C315.511 280.688 317.822 280.716 319.411 280.734C320.182 280.749 320.776 280.759 321.197 280.768C321.598 280.782 321.804 280.8 321.804 280.8C321.804 280.8 321.598 280.817 321.196 280.823C320.774 280.827 320.181 280.833 319.41 280.841C317.82 280.845 315.509 280.851 312.541 280.859C306.558 280.85 297.932 280.839 287.278 280.825C276.606 280.792 263.907 280.752 249.806 280.708C242.753 280.68 235.35 280.651 227.676 280.621C226.716 280.617 225.753 280.612 224.785 280.608L223.33 280.602C222.841 280.628 222.24 280.509 221.798 280.194C221.345 279.883 221.007 279.411 220.861 278.879C220.713 278.319 220.801 277.831 220.779 277.344C220.783 276.361 220.787 275.373 220.791 274.383C220.799 272.401 220.807 270.404 220.815 268.395C220.827 267.378 220.807 266.412 220.844 265.342C220.955 264.191 222.029 263.244 223.189 263.274C255.729 263.454 285.189 263.617 306.538 263.735C311.868 263.774 316.692 263.809 320.933 263.84C321.456 263.867 321.985 263.783 322.526 263.949C323.048 264.112 323.489 264.47 323.76 264.919C324.047 265.358 324.109 265.919 324.08 266.381C324.076 266.854 324.072 267.317 324.068 267.771C324.052 269.585 324.038 271.243 324.025 272.735C324.009 274.224 323.996 275.549 323.984 276.7C323.977 277.272 323.97 277.803 323.964 278.288C323.973 278.766 323.944 279.238 323.757 279.599C323.405 280.341 322.787 280.634 322.41 280.74C322.015 280.837 321.804 280.8 321.804 280.8Z" fill="#E0E0E0"/>
<path d="M275.29 225.18L228.246 224.963L228.225 229.374L275.269 229.591L275.29 225.18Z" fill="#F36B16"/>
<path opacity="0.2" d="M275.29 225.18L228.246 224.963L228.225 229.374L275.269 229.591L275.29 225.18Z" fill="white"/>
<path d="M232.511 272.637C232.506 273.848 231.581 274.826 230.445 274.821C229.309 274.815 228.393 273.829 228.398 272.618C228.403 271.407 229.328 270.428 230.464 270.434C231.6 270.439 232.516 271.425 232.511 272.637Z" fill="#F36B16"/>
<path d="M238.885 272.667C238.88 273.878 237.955 274.856 236.819 274.851C235.683 274.846 234.767 273.86 234.772 272.648C234.777 271.437 235.702 270.459 236.838 270.464C237.974 270.468 238.89 271.455 238.885 272.667Z" fill="#F36B16"/>
<path d="M245.258 272.696C245.253 273.907 244.328 274.886 243.192 274.88C242.056 274.875 241.14 273.889 241.145 272.677C241.15 271.466 242.075 270.488 243.211 270.493C244.346 270.498 245.263 271.484 245.258 272.696Z" fill="#F36B16"/>
<path d="M251.63 272.725C251.625 273.936 250.7 274.915 249.565 274.909C248.429 274.904 247.512 273.918 247.518 272.706C247.523 271.495 248.448 270.517 249.584 270.522C250.719 270.528 251.636 271.514 251.63 272.725Z" fill="#F36B16"/>
<path d="M258.004 272.754C257.999 273.966 257.074 274.944 255.938 274.938C254.802 274.933 253.885 273.947 253.89 272.736C253.896 271.524 254.821 270.546 255.956 270.551C257.092 270.557 258.008 271.543 258.004 272.754Z" fill="#F36B16"/>
<path d="M264.375 272.784C264.37 273.996 263.445 274.974 262.309 274.968C261.173 274.963 260.257 273.977 260.262 272.766C260.267 271.554 261.192 270.577 262.327 270.581C263.464 270.586 264.38 271.573 264.375 272.784Z" fill="#F36B16"/>
<path d="M270.749 272.813C270.743 274.025 269.818 275.003 268.683 274.998C267.547 274.992 266.631 274.006 266.636 272.795C266.641 271.583 267.566 270.606 268.701 270.611C269.836 270.616 270.753 271.602 270.749 272.813Z" fill="#F36B16"/>
<path d="M277.121 272.842C277.116 274.054 276.191 275.032 275.056 275.027C273.92 275.021 273.003 274.036 273.009 272.824C273.014 271.613 273.939 270.635 275.074 270.64C276.21 270.645 277.126 271.631 277.121 272.842Z" fill="#F36B16"/>
<path d="M283.494 272.873C283.489 274.084 282.564 275.062 281.429 275.057C280.293 275.052 279.376 274.066 279.381 272.854C279.387 271.643 280.312 270.666 281.447 270.67C282.583 270.674 283.499 271.661 283.494 272.873Z" fill="#F36B16"/>
<g opacity="0.2">
<path d="M232.511 272.637C232.506 273.848 231.581 274.826 230.445 274.821C229.309 274.815 228.393 273.829 228.398 272.618C228.403 271.407 229.328 270.428 230.464 270.434C231.6 270.439 232.516 271.425 232.511 272.637Z" fill="white"/>
<path d="M238.885 272.667C238.88 273.878 237.955 274.856 236.819 274.851C235.683 274.846 234.767 273.86 234.772 272.648C234.777 271.437 235.702 270.459 236.838 270.464C237.974 270.468 238.89 271.455 238.885 272.667Z" fill="white"/>
<path d="M245.258 272.696C245.253 273.907 244.328 274.886 243.192 274.88C242.056 274.875 241.14 273.889 241.145 272.677C241.15 271.466 242.075 270.488 243.211 270.493C244.346 270.498 245.263 271.484 245.258 272.696Z" fill="white"/>
<path d="M251.63 272.725C251.625 273.936 250.7 274.915 249.565 274.909C248.429 274.904 247.512 273.918 247.518 272.706C247.523 271.495 248.448 270.517 249.584 270.522C250.719 270.528 251.636 271.514 251.63 272.725Z" fill="white"/>
<path d="M258.004 272.754C257.999 273.966 257.074 274.944 255.938 274.938C254.802 274.933 253.885 273.947 253.89 272.736C253.896 271.524 254.821 270.546 255.956 270.551C257.092 270.557 258.008 271.543 258.004 272.754Z" fill="white"/>
<path d="M264.375 272.784C264.37 273.996 263.445 274.974 262.309 274.968C261.173 274.963 260.257 273.977 260.262 272.766C260.267 271.554 261.192 270.577 262.327 270.581C263.464 270.586 264.38 271.573 264.375 272.784Z" fill="white"/>
<path d="M270.749 272.813C270.743 274.025 269.818 275.003 268.683 274.998C267.547 274.992 266.631 274.006 266.636 272.795C266.641 271.583 267.566 270.606 268.701 270.611C269.836 270.616 270.753 271.602 270.749 272.813Z" fill="white"/>
<path d="M277.121 272.842C277.116 274.054 276.191 275.032 275.056 275.027C273.92 275.021 273.003 274.036 273.009 272.824C273.014 271.613 273.939 270.635 275.074 270.64C276.21 270.645 277.126 271.631 277.121 272.842Z" fill="white"/>
<path d="M283.494 272.873C283.489 274.084 282.564 275.062 281.429 275.057C280.293 275.052 279.376 274.066 279.381 272.854C279.387 271.643 280.312 270.666 281.447 270.67C282.583 270.674 283.499 271.661 283.494 272.873Z" fill="white"/>
</g>
<path d="M274.443 128.506C275.789 127.941 276.746 126.554 276.754 124.919C276.763 122.777 275.142 121.033 273.133 121.023C271.125 121.014 269.489 122.743 269.481 124.885C269.474 126.535 270.438 127.94 271.798 128.506C266.201 129.349 266.455 135.432 266.455 135.432L279.689 135.493C279.689 135.493 279.991 129.344 274.443 128.506Z" fill="#F36B16"/>
<path opacity="0.1" d="M274.443 128.506C275.789 127.941 276.746 126.554 276.754 124.919C276.763 122.777 275.142 121.033 273.133 121.023C271.125 121.014 269.489 122.743 269.481 124.885C269.474 126.535 270.438 127.94 271.798 128.506C266.201 129.349 266.455 135.432 266.455 135.432L279.689 135.493C279.689 135.493 279.991 129.344 274.443 128.506Z" fill="black"/>
<path d="M295.955 139.472L248.762 139.255L248.736 144.898L295.929 145.115L295.955 139.472Z" fill="#F36B16"/>
<path opacity="0.2" d="M295.955 139.472L248.762 139.255L248.736 144.898L295.929 145.115L295.955 139.472Z" fill="white"/>
<path d="M122.465 168.677C122.465 168.687 122.307 168.704 122.001 168.729C121.67 168.753 121.219 168.786 120.64 168.828C120.039 168.838 119.308 168.969 118.446 169.121C118.017 169.208 117.543 169.243 117.059 169.386C116.573 169.521 116.056 169.664 115.509 169.816C113.351 170.497 110.752 171.579 108.135 173.474C105.525 175.354 102.914 178.043 100.879 181.551C99.8091 183.275 99.0331 185.266 98.3361 187.359C97.7691 189.489 97.2671 191.752 97.2291 194.137C97.1231 195.326 97.2431 196.534 97.2931 197.762C97.3251 198.376 97.4571 198.984 97.5361 199.603C97.6201 200.222 97.7111 200.844 97.8871 201.455C98.3931 203.941 99.4061 206.378 100.687 208.713C103.248 213.401 107.552 217.44 112.867 219.781C115.526 220.954 118.466 221.587 121.456 221.71C124.449 221.9 127.515 221.419 130.421 220.42L131.3 220.097L131.416 220.055L131.521 220.108C135.824 222.293 140.044 224.435 144.133 226.511L143.758 226.831C142.411 222.651 141.106 218.599 139.853 214.71L139.805 214.56L139.916 214.449C143.095 211.266 145.31 207.399 146.538 203.44C147.769 199.469 147.979 195.425 147.499 191.719C147.019 188.005 145.805 184.628 144.186 181.786C142.568 178.936 140.556 176.621 138.491 174.813C136.402 173.018 134.236 171.802 132.295 170.871C130.307 170.039 128.535 169.506 127.062 169.222C126.326 169.096 125.671 168.985 125.1 168.888C124.534 168.848 124.052 168.815 123.653 168.787C123.281 168.758 122.988 168.736 122.766 168.719C122.567 168.698 122.465 168.685 122.465 168.677C122.465 168.67 122.567 168.668 122.767 168.671C122.989 168.677 123.283 168.686 123.657 168.696C124.058 168.712 124.544 168.732 125.114 168.755C125.69 168.841 126.351 168.939 127.094 169.05C128.582 169.31 130.377 169.821 132.396 170.639C134.366 171.556 136.57 172.766 138.7 174.566C140.806 176.378 142.861 178.711 144.52 181.592C146.179 184.465 147.431 187.888 147.935 191.659C148.439 195.421 148.241 199.533 147.001 203.578C145.764 207.611 143.518 211.558 140.282 214.81L140.345 214.549C141.603 218.435 142.915 222.486 144.268 226.664L144.466 227.275L143.893 226.985C139.802 224.911 135.582 222.772 131.277 220.589L131.498 220.6L130.6 220.93C127.629 221.952 124.493 222.441 121.434 222.247C118.379 222.12 115.373 221.469 112.658 220.267C107.229 217.87 102.85 213.738 100.253 208.956C98.9531 206.574 97.9321 204.089 97.4231 201.558C97.2471 200.936 97.1571 200.303 97.0731 199.673C96.9951 199.044 96.8641 198.424 96.8331 197.8C96.7861 196.552 96.6691 195.323 96.7821 194.116C96.8311 191.693 97.3501 189.395 97.9381 187.236C98.6561 185.114 99.4561 183.099 100.551 181.356C102.636 177.811 105.302 175.106 107.961 173.227C110.626 171.333 113.265 170.269 115.451 169.613C116.004 169.469 116.528 169.332 117.02 169.204C117.509 169.068 117.988 169.04 118.421 168.962C119.292 168.825 120.028 168.711 120.633 168.719C121.215 168.699 121.669 168.685 122.002 168.673C122.308 168.667 122.465 168.668 122.465 168.677Z" fill="#F36B16"/>
<path d="M128.168 192.026H126.32L122.287 186.405V182.716C122.287 182.716 119.431 182.54 119.766 187.371C120.102 192.202 119.739 190.972 119.739 190.972C119.739 190.972 113.674 190.995 113.17 191.522C112.803 191.905 112.638 197.93 112.574 201.197C112.542 202.842 113.551 204.372 115.081 204.761C115.298 204.817 115.518 204.849 115.734 204.849C117.247 204.849 124.976 203.619 124.976 203.619H128.168V192.026Z" fill="#F36B16"/>
<path d="M133.458 191.013L132.322 203.653H129.157V191.268L133.458 191.013Z" fill="#F36B16"/>
<path d="M171.15 448.341V439.785L155.819 439.682L155.692 452.607L156.642 452.678C160.871 452.951 178.163 453.349 180.996 452.472C184.157 451.495 171.15 448.341 171.15 448.341Z" fill="#F36B16"/>
<path d="M181.359 451.67C181.359 451.815 175.624 451.931 168.552 451.931C161.477 451.931 155.744 451.815 155.744 451.67C155.744 451.526 161.477 451.41 168.552 451.41C175.624 451.411 181.359 451.527 181.359 451.67Z" fill="#263238"/>
<path d="M171.419 450.087C171.293 450.021 171.401 449.569 171.73 449.123C172.058 448.676 172.459 448.438 172.559 448.539C172.662 448.642 172.452 449.018 172.149 449.432C171.846 449.843 171.548 450.156 171.419 450.087Z" fill="#263238"/>
<path d="M172.397 450.651C172.264 450.601 172.333 450.094 172.634 449.561C172.934 449.026 173.333 448.706 173.444 448.793C173.559 448.883 173.366 449.319 173.087 449.816C172.808 450.312 172.534 450.704 172.397 450.651Z" fill="#263238"/>
<path d="M160.363 451.632C160.303 451.674 160.075 451.449 159.743 451.073C159.409 450.7 158.972 450.172 158.398 449.726C157.829 449.282 157.202 449.059 156.739 449.001C156.273 448.938 155.967 449.011 155.941 448.936C155.914 448.88 156.199 448.666 156.752 448.633C157.296 448.596 158.065 448.803 158.716 449.313C159.363 449.818 159.777 450.42 160.04 450.856C160.302 451.296 160.42 451.592 160.363 451.632Z" fill="#263238"/>
<path d="M171.466 448.479C171.541 448.6 171.278 448.897 170.84 449.057C170.403 449.219 170.009 449.162 169.989 449.022C169.966 448.878 170.277 448.711 170.66 448.569C171.044 448.428 171.39 448.355 171.466 448.479Z" fill="#263238"/>
<path d="M171.226 447.652C171.24 447.796 170.831 447.919 170.314 447.925C169.796 447.932 169.384 447.821 169.395 447.677C169.405 447.533 169.813 447.411 170.307 447.404C170.8 447.398 171.212 447.509 171.226 447.652Z" fill="#263238"/>
<path d="M208.901 448.341L208.902 439.785L193.571 439.682L193.444 452.476L194.394 452.546C198.623 452.819 215.915 453.349 218.749 452.472C221.909 451.495 208.901 448.341 208.901 448.341Z" fill="#F36B16"/>
<path d="M219.111 451.69C219.111 451.833 213.377 451.951 206.304 451.951C199.229 451.951 193.496 451.834 193.496 451.69C193.496 451.546 199.229 451.429 206.304 451.429C213.376 451.429 219.111 451.546 219.111 451.69Z" fill="#263238"/>
<path d="M209.171 450.087C209.045 450.021 209.153 449.569 209.483 449.123C209.811 448.676 210.212 448.438 210.312 448.539C210.415 448.642 210.205 449.018 209.902 449.432C209.598 449.843 209.299 450.156 209.171 450.087Z" fill="#263238"/>
<path d="M210.149 450.651C210.016 450.601 210.085 450.094 210.386 449.561C210.686 449.026 211.085 448.706 211.196 448.793C211.311 448.883 211.118 449.319 210.84 449.816C210.56 450.312 210.285 450.704 210.149 450.651Z" fill="#263238"/>
<path d="M198.114 451.632C198.054 451.674 197.826 451.449 197.494 451.073C197.161 450.7 196.723 450.172 196.149 449.726C195.58 449.282 194.954 449.059 194.49 449.001C194.024 448.938 193.718 449.011 193.692 448.936C193.665 448.88 193.95 448.666 194.502 448.633C195.046 448.596 195.816 448.803 196.466 449.313C197.114 449.818 197.526 450.42 197.79 450.856C198.054 451.296 198.172 451.592 198.114 451.632Z" fill="#263238"/>
<path d="M209.218 448.479C209.293 448.6 209.03 448.897 208.593 449.057C208.155 449.219 207.762 449.162 207.741 449.022C207.718 448.878 208.029 448.711 208.412 448.569C208.796 448.428 209.142 448.355 209.218 448.479Z" fill="#263238"/>
<path d="M208.977 447.652C208.991 447.796 208.582 447.919 208.065 447.925C207.547 447.932 207.136 447.821 207.146 447.677C207.156 447.533 207.565 447.411 208.059 447.404C208.552 447.398 208.963 447.509 208.977 447.652Z" fill="#263238"/>
<path d="M265.378 194.445C264.978 194.033 263.994 194.227 263.994 194.227C263.994 194.227 264.166 193.058 263.984 192.493C263.803 191.928 262.543 192.037 262.543 192.037C262.543 192.037 262.465 191.493 262.575 190.615C262.603 190.395 262.481 190.233 262.282 190.112C261.685 189.751 260.398 189.768 260.398 189.768C259.626 189.216 262.75 184.848 263.908 183.45C265.053 182.069 264.86 180.962 263.827 180.964C263.123 180.965 259.476 185.164 258.363 186.574C257.251 187.983 254.267 191.904 254.166 188.775C254.064 185.646 252.807 183.279 252.021 182.876C251.235 182.473 250.387 183.419 250.822 184.288C251.174 184.99 251.396 186.343 251.522 187.366C251.626 188.21 251.591 189.066 251.407 189.895C250.885 192.239 250.324 193.761 250.061 194.412L249.984 194.369C249.984 194.369 228.157 215.298 226.584 216.792C225.168 218.136 196.806 215.202 191.124 214.599C189.571 214.425 187.271 214.113 185.278 214.201C182.813 214.309 182.375 214.659 179.908 214.692C172.354 214.793 166.059 215.528 161.374 216.321C155.71 217.279 151.066 221.311 149.313 226.782C143.578 244.679 130.604 287.05 128.292 310.854C126.471 314.278 124.436 318.277 123.609 320.527C122.002 324.902 122.392 325.051 122.934 325.152C124.388 325.421 126.052 317.564 126.673 319.46C127.295 321.357 123.521 328.833 125.052 329.052C127.048 329.337 128.639 321.08 128.825 320.391C129.006 319.722 130.013 319.948 129.812 320.561C129.522 321.442 126.708 330.772 128.666 331.071C129.751 331.237 129.868 329.26 129.868 329.26C129.868 329.26 131.858 320.337 132.777 320.509C133.711 320.684 132.719 325.962 132.258 327.718C131.803 329.453 132.444 330.375 133.38 329.939C134.018 329.641 135.555 324.295 135.969 322.548C136.384 320.801 137.435 315.988 138.847 318.782C140.259 321.576 142.396 323.192 143.279 323.227C144.161 323.261 144.531 322.046 143.77 321.441C143.155 320.953 142.383 319.82 141.837 318.945C141.387 318.224 141.057 317.433 140.875 316.603C140.172 313.403 140.178 311.542 140.178 311.542L140.015 310.514C142.254 299.421 148.709 266.876 157.981 246.084L161.799 253.941L163.456 259.757L153.281 284.896L196.694 284.324L190.222 259.385L198.085 233.38H198.084C206.594 233.57 228.451 233.887 232.124 232.245C236.703 230.199 260.402 200.325 260.402 200.325H260.401C262.002 199.05 263.63 197.679 264.831 196.482C264.833 196.48 266.246 195.337 265.378 194.445Z" fill="#FFBE9D"/>
<path d="M151.392 266.387C152.649 262.088 159.121 240.83 159.121 240.83C159.121 240.83 162.297 258.161 161.462 260.248C160.5 262.653 158.732 265.405 158.732 265.405C151.392 276.584 152.355 282.171 152.355 282.171L196.695 280.819C196.803 274.618 193.132 260.201 192.365 257.904C191.597 255.607 194.143 248.068 194.143 248.068C194.143 248.068 199.154 242.979 198.96 240.36C198.569 235.084 198.086 233.38 198.086 233.38L225.066 234.373L224.218 216.066L185.435 212.185C184.093 216.004 171.88 214.133 171.88 214.133C158.695 214.566 157.897 216.991 152.398 221.248C146.9 225.505 137.845 262.067 137.845 262.067L151.392 266.387Z" fill="#F36B16"/>
<path d="M177.615 262.063C177.614 262.132 176.722 262.191 175.278 262.181C173.835 262.172 171.84 262.082 169.648 261.863C167.455 261.641 165.483 261.332 164.066 261.053C162.65 260.775 161.787 260.54 161.8 260.472C161.814 260.399 162.699 260.506 164.125 260.69C165.551 260.875 167.519 261.125 169.7 261.344C171.88 261.563 173.858 261.71 175.292 261.813C176.727 261.917 177.616 261.988 177.615 262.063Z" fill="#263238"/>
<path d="M180.65 258.292C180.669 258.356 179.754 258.703 178.229 259.117C176.705 259.53 174.564 259.987 172.168 260.273C169.771 260.556 167.582 260.615 166.003 260.569C164.423 260.524 163.453 260.399 163.457 260.334C163.46 260.257 164.434 260.25 166.002 260.201C167.57 260.152 169.732 260.037 172.106 259.756C174.478 259.473 176.608 259.078 178.144 258.759C179.68 258.439 180.629 258.217 180.65 258.292Z" fill="#263238"/>
<path d="M195.565 241.471C195.634 241.486 195.52 242.35 195.262 243.733C195.004 245.116 194.599 247.016 194.088 249.1C193.576 251.185 193.057 253.058 192.646 254.403C192.235 255.749 191.937 256.568 191.868 256.549C191.798 256.529 191.971 255.676 192.29 254.308C192.668 252.747 193.103 250.955 193.582 248.977C194.072 247.002 194.516 245.213 194.903 243.654C195.252 242.292 195.494 241.456 195.565 241.471Z" fill="#263238"/>
<path d="M151.857 263.84C151.819 263.979 148.761 263.266 145.027 262.247C141.292 261.227 138.296 260.29 138.334 260.15C138.372 260.011 141.429 260.725 145.164 261.744C148.898 262.763 151.895 263.702 151.857 263.84Z" fill="#263238"/>
<path d="M198.575 233.145C198.575 233.169 198.164 233.212 197.427 233.139C196.694 233.064 195.621 232.893 194.378 232.412C193.134 231.946 191.72 231.167 190.399 229.989C189.078 228.816 187.897 227.202 187.144 225.303C186.379 223.405 186.128 221.427 186.248 219.666C186.364 217.908 186.83 216.319 187.617 215.206C188.396 214.078 189.429 213.532 190.148 213.343C190.512 213.246 190.806 213.223 191.002 213.228C191.199 213.233 191.3 213.255 191.3 213.271C191.302 213.32 190.885 213.297 190.209 213.536C189.545 213.774 188.611 214.335 187.923 215.412C186.562 217.552 186.182 221.459 187.629 225.111C188.354 226.937 189.469 228.487 190.723 229.635C191.976 230.788 193.324 231.575 194.516 232.071C196.918 233.067 198.593 233.034 198.575 233.145Z" fill="#263238"/>
<path d="M221.884 234.007C221.741 234.007 221.632 229.881 221.642 224.792C221.652 219.701 221.777 215.577 221.92 215.577C222.064 215.578 222.172 219.703 222.162 224.793C222.153 229.882 222.028 234.008 221.884 234.007Z" fill="#263238"/>
<path d="M185.198 213.3C185.307 211.068 185.541 208.547 185.541 208.547C185.541 208.547 191.059 207.939 191.394 202.238C191.729 196.537 191.394 183.392 191.394 183.392L181.343 178.274L170.287 186.999L171.962 215.5L182.135 216.147C183.739 216.249 185.116 214.971 185.198 213.3Z" fill="#FFBE9D"/>
<path d="M186.192 197.729C186.208 197.733 186.209 197.836 186.105 197.974C186.003 198.108 185.78 198.26 185.47 198.254C184.829 198.223 184.213 197.515 183.986 196.651C183.872 196.212 183.873 195.767 183.959 195.384C184.027 195.007 184.245 194.628 184.559 194.525C184.709 194.469 184.865 194.475 184.984 194.535C185.101 194.594 185.173 194.683 185.21 194.765C185.285 194.935 185.227 195.038 185.212 195.03C185.189 195.029 185.195 194.935 185.111 194.828C185.032 194.719 184.844 194.62 184.636 194.728C184.424 194.824 184.279 195.095 184.225 195.442C184.162 195.786 184.17 196.181 184.271 196.572C184.471 197.346 185.008 197.98 185.485 198.037C185.721 198.067 185.917 197.976 186.023 197.89C186.133 197.8 186.171 197.719 186.192 197.729Z" fill="#EB996E"/>
<path d="M194.821 180.315C194.053 177.691 191.263 176.387 188.721 175.667C184.854 174.571 180.665 174.086 176.887 175.477C173.109 176.868 168.565 179.315 168.566 183.489C166.336 183.305 165.062 185.259 164.177 187.68C163.654 189.11 163.31 190.702 163.229 192.279L163.192 192.267C162.905 197.73 161.383 205.257 157.841 209.298C155.885 211.529 153.069 213.07 151.929 215.849C150.938 218.264 151.451 221.118 150.514 223.556C149.687 225.708 147.856 227.236 146.543 229.108C143.684 233.186 143.489 238.947 145.59 243.498C147.691 248.049 151.854 251.379 156.475 252.905C161.096 254.431 166.13 254.263 170.833 253.039C174.305 252.135 177.683 250.639 180.45 248.274C183.217 245.909 185.34 242.622 185.973 238.952C186.677 234.867 185.534 230.719 184.693 226.662C182.033 213.827 182.793 213.16 186.15 201.254C186.226 201.044 186.273 200.825 186.331 200.609C186.375 200.451 186.418 200.3 186.463 200.138L186.456 200.136C186.55 199.67 186.611 199.196 186.613 198.712C185.641 199.095 184.467 198.84 183.721 198.086C182.976 197.332 182.698 196.116 183.037 195.093C183.427 193.916 184.507 193.13 185.616 192.663C186.725 192.196 187.918 191.965 189.007 191.448C191.316 190.349 192.917 188.069 194.006 185.68C194.771 184.005 195.34 182.087 194.821 180.315Z" fill="#263238"/>
<path d="M186.587 197.972C186.622 197.957 186.816 198.329 187.113 198.96C187.41 199.591 187.808 200.482 188.251 201.506L188.334 201.7L188.122 201.718C187.789 201.747 187.452 201.776 187.104 201.806C186.406 201.851 185.824 201.935 185.148 201.928C185.041 201.909 184.922 201.811 184.89 201.701C184.854 201.593 184.864 201.502 184.875 201.423C184.904 201.266 184.939 201.15 184.969 201.017L185.146 200.309C185.367 199.445 185.525 198.915 185.567 198.925C185.609 198.935 185.527 199.482 185.361 200.357L185.222 201.072C185.171 201.314 185.083 201.675 185.213 201.647C185.711 201.626 186.42 201.543 187.078 201.494C187.426 201.466 187.763 201.44 188.096 201.413L187.968 201.625C187.54 200.596 187.177 199.689 186.929 199.037C186.684 198.386 186.552 197.987 186.587 197.972Z" fill="#F36B16"/>
<path d="M152.355 282.171L196.695 280.819L215.98 356.158L212.428 442.577H188.959L191.867 357.998L174.715 305.552L177.358 445.928L153.664 446.278L151.168 314.33C151.064 310.663 149.857 302.389 150.306 298.751L152.355 282.171Z" fill="#263238"/>
<path d="M180.621 306.617C180.612 306.686 179.78 306.645 178.446 306.488C177.112 306.331 175.277 306.049 173.267 305.646C171.257 305.241 169.456 304.791 168.165 304.419C166.874 304.047 166.091 303.766 166.109 303.697C166.149 303.552 169.368 304.333 173.37 305.135C177.369 305.944 180.64 306.468 180.621 306.617Z" fill="#455A64"/>
<path d="M212.215 437.837C212.215 437.982 206.901 438.098 200.349 438.098C193.794 438.098 188.482 437.982 188.482 437.837C188.482 437.694 193.794 437.577 200.349 437.577C206.901 437.578 212.215 437.694 212.215 437.837Z" fill="#455A64"/>
<path d="M177.146 442.281C177.146 442.426 171.992 442.542 165.634 442.542C159.275 442.542 154.121 442.426 154.121 442.281C154.121 442.137 159.275 442.021 165.634 442.021C171.992 442.021 177.146 442.137 177.146 442.281Z" fill="#455A64"/>
<path d="M174.094 441.921C173.95 441.923 173.327 411.249 172.702 373.418C172.077 335.573 171.687 304.901 171.831 304.899C171.975 304.897 172.598 335.564 173.223 373.409C173.848 411.241 174.238 441.918 174.094 441.921Z" fill="#455A64"/>
<path d="M209.063 437.837C209.054 437.837 209.051 437.698 209.052 437.429C209.057 437.134 209.065 436.738 209.074 436.231C209.105 435.15 209.15 433.604 209.207 431.627C209.347 427.602 209.547 421.824 209.795 414.696C210.342 400.379 211.097 380.644 211.931 358.846C211.939 358.645 211.947 358.444 211.954 358.258L211.962 358.332C206.707 337.289 201.957 318.269 198.513 304.479C196.823 297.61 195.454 292.044 194.5 288.166C194.042 286.26 193.685 284.769 193.435 283.727C193.323 283.238 193.236 282.855 193.171 282.57C193.114 282.308 193.089 282.174 193.098 282.172C193.106 282.17 193.148 282.301 193.222 282.558C193.299 282.839 193.403 283.219 193.536 283.703C193.809 284.74 194.198 286.223 194.696 288.119C195.688 291.986 197.111 297.538 198.868 304.391C202.35 318.171 207.153 337.178 212.466 358.206L212.475 358.242L212.474 358.28C212.467 358.465 212.458 358.666 212.451 358.868C211.558 380.663 210.749 400.394 210.162 414.711C209.845 421.836 209.588 427.61 209.409 431.635C209.309 433.611 209.232 435.155 209.178 436.236C209.147 436.742 209.123 437.138 209.105 437.432C209.086 437.701 209.072 437.838 209.063 437.837Z" fill="#455A64"/>
<path d="M201.414 356.5C201.438 356.642 199.117 357.158 196.229 357.654C194.073 358.025 192.211 358.279 191.398 358.325L191.397 358.122C191.667 358.196 191.812 358.254 191.806 358.29C191.801 358.326 191.644 358.337 191.365 358.325L190.759 358.299L191.364 358.122C192.146 357.893 193.986 357.512 196.142 357.142C199.028 356.645 201.389 356.357 201.414 356.5Z" fill="#455A64"/>
<path d="M200.965 359.375C200.945 359.52 198.862 359.359 196.297 359.162C193.732 358.96 191.649 358.796 191.652 358.649C191.655 358.507 193.756 358.439 196.338 358.642C198.918 358.841 200.984 359.235 200.965 359.375Z" fill="#455A64"/>
<path opacity="0.2" d="M152.158 283.763C153.23 285.272 154.759 285.801 156.536 286.092C158.312 286.383 160.125 286.189 161.913 285.99C173.358 284.72 185.486 283.549 196.695 280.818C182.186 281.631 166.864 281.357 152.355 282.17C152.355 282.17 152.231 283.168 152.202 283.408" fill="black"/>
<g opacity="0.2">
<path d="M167.114 304.214L175.288 335.947L174.716 305.551L167.114 304.214Z" fill="black"/>
</g>
</svg>
